<svg xmlns="http://www.w3.org/2000/svg" xmlns:xlink="http://www.w3.org/1999/xlink" width="500" zoomAndPan="magnify" viewBox="0 0 375 374.999991" height="500" preserveAspectRatio="xMidYMid meet" version="1.0"><defs><g/><clipPath id="7d7003644f"><path d="M 68.695312 172.019531 L 110.40625 172.019531 L 110.40625 223.738281 L 68.695312 223.738281 Z M 68.695312 172.019531 " clip-rule="nonzero"/></clipPath><clipPath id="324fcdc52a"><path d="M 68.695312 151.25 L 110.40625 151.25 L 110.40625 203.511719 L 68.695312 203.511719 Z M 68.695312 151.25 " clip-rule="nonzero"/></clipPath><clipPath id="2c5c78b534"><path d="M 27.15625 151.167969 L 69 151.167969 L 69 220 L 27.15625 220 Z M 27.15625 151.167969 " clip-rule="nonzero"/></clipPath><clipPath id="29c37bb77e"><path d="M 42.566406 186 L 68.921875 186 L 68.921875 223.738281 L 42.566406 223.738281 Z M 42.566406 186 " clip-rule="nonzero"/></clipPath></defs><g fill="#fcc509" fill-opacity="0.4"><g transform="translate(129.231486, 204.558635)"><g><path d="M 44.34375 -37.484375 L 49.796875 0 L 40.59375 0 L 37.703125 -20.9375 L 28.703125 0 L 23.78125 0 L 14.78125 -21.046875 L 11.828125 0 L 2.671875 0 L 8.140625 -37.484375 L 16.21875 -37.484375 L 26.296875 -13.921875 L 36.359375 -37.484375 Z M 44.34375 -37.484375 "/></g></g></g><g fill="#fcc509" fill-opacity="0.4"><g transform="translate(179.603878, 204.558635)"><g><path d="M 13.765625 -15.265625 L 13.765625 -7.984375 L 29.125 -7.984375 L 29.125 0 L 4.390625 0 L 4.390625 -37.484375 L 28.59375 -37.484375 L 28.59375 -29.5 L 13.765625 -29.5 L 13.765625 -23.03125 L 28.0625 -23.03125 L 28.0625 -15.265625 Z M 13.765625 -15.265625 "/></g></g></g><g fill="#fcc509" fill-opacity="0.4"><g transform="translate(209.420301, 204.558635)"><g><path d="M 19.65625 0 L 10.28125 0 L 10.28125 -29.015625 L 1.078125 -29.015625 L 1.078125 -37.484375 L 28.75 -37.484375 L 28.75 -29.015625 L 19.65625 -29.015625 Z M 19.65625 0 "/></g></g></g><g fill="#ff3131" fill-opacity="1"><g transform="translate(129.231486, 204.558635)"><g><path d="M 44.34375 -37.484375 L 49.796875 0 L 40.59375 0 L 37.703125 -20.9375 L 28.703125 0 L 23.78125 0 L 14.78125 -21.046875 L 11.828125 0 L 2.671875 0 L 8.140625 -37.484375 L 16.21875 -37.484375 L 26.296875 -13.921875 L 36.359375 -37.484375 Z M 44.34375 -37.484375 "/></g></g></g><g fill="#ff3131" fill-opacity="1"><g transform="translate(179.603878, 204.558635)"><g><path d="M 13.765625 -15.265625 L 13.765625 -7.984375 L 29.125 -7.984375 L 29.125 0 L 4.390625 0 L 4.390625 -37.484375 L 28.59375 -37.484375 L 28.59375 -29.5 L 13.765625 -29.5 L 13.765625 -23.03125 L 28.0625 -23.03125 L 28.0625 -15.265625 Z M 13.765625 -15.265625 "/></g></g></g><g fill="#ff3131" fill-opacity="1"><g transform="translate(209.420301, 204.558635)"><g><path d="M 19.65625 0 L 10.28125 0 L 10.28125 -29.015625 L 1.078125 -29.015625 L 1.078125 -37.484375 L 28.75 -37.484375 L 28.75 -29.015625 L 19.65625 -29.015625 Z M 19.65625 0 "/></g></g></g><g fill="#3b3f3f" fill-opacity="1"><g transform="translate(234.681229, 204.979163)"><g><path d="M 31.328125 -37.484375 L 29.765625 -29.296875 L 16.703125 -29.296875 L 15.265625 -21.796875 L 27.84375 -21.796875 L 26.34375 -13.96875 L 13.765625 -13.96875 L 11.078125 0 L 1.71875 0 L 8.890625 -37.484375 Z M 31.328125 -37.484375 "/></g></g></g><g fill="#3b3f3f" fill-opacity="1"><g transform="translate(261.874618, 204.979163)"><g><path d="M 25.0625 0 L 1.71875 0 L 8.890625 -37.484375 L 18.265625 -37.484375 L 12.75 -8.453125 L 26.71875 -8.453125 Z M 25.0625 0 "/></g></g></g><g fill="#3b3f3f" fill-opacity="1"><g transform="translate(288.532698, 204.979163)"><g><path d="M 11.359375 0 L 1.984375 0 L 9.15625 -37.484375 L 18.53125 -37.484375 Z M 11.359375 0 "/></g></g></g><g fill="#3b3f3f" fill-opacity="1"><g transform="translate(305.073386, 204.979163)"><g><path d="M 28.328125 -37.484375 L 39.203125 -37.484375 L 25.4375 -19.4375 L 33.140625 0 L 23.296875 0 L 18.640625 -13.015625 L 9 0 L -2.09375 0 L 13.0625 -19.390625 L 6.21875 -37.484375 L 15.953125 -37.484375 L 19.859375 -25.65625 Z M 28.328125 -37.484375 "/></g></g></g><g fill="#000000" fill-opacity="1"><g transform="translate(140.04685, 220.999908)"><g><path d="M 5.59375 -0.59375 L 5.59375 0 L 1.046875 0 L 1.046875 -6.4375 L 5.453125 -6.4375 L 5.453125 -5.84375 L 1.734375 -5.84375 L 1.734375 -3.5625 L 5.046875 -3.5625 L 5.046875 -2.984375 L 1.734375 -2.984375 L 1.734375 -0.59375 Z M 5.59375 -0.59375 "/></g></g></g><g fill="#000000" fill-opacity="1"><g transform="translate(153.302275, 220.999908)"><g><path d="M 6.421875 -6.4375 L 6.421875 0 L 5.859375 0 L 1.734375 -5.21875 L 1.734375 0 L 1.046875 0 L 1.046875 -6.4375 L 1.609375 -6.4375 L 5.75 -1.21875 L 5.75 -6.4375 Z M 6.421875 -6.4375 "/></g></g></g><g fill="#000000" fill-opacity="1"><g transform="translate(167.880693, 220.999908)"><g><path d="M 2.296875 -5.84375 L 0.03125 -5.84375 L 0.03125 -6.4375 L 5.234375 -6.4375 L 5.234375 -5.84375 L 2.984375 -5.84375 L 2.984375 0 L 2.296875 0 Z M 2.296875 -5.84375 "/></g></g></g><g fill="#000000" fill-opacity="1"><g transform="translate(180.2633, 220.999908)"><g><path d="M 5.59375 -0.59375 L 5.59375 0 L 1.046875 0 L 1.046875 -6.4375 L 5.453125 -6.4375 L 5.453125 -5.84375 L 1.734375 -5.84375 L 1.734375 -3.5625 L 5.046875 -3.5625 L 5.046875 -2.984375 L 1.734375 -2.984375 L 1.734375 -0.59375 Z M 5.59375 -0.59375 "/></g></g></g><g fill="#000000" fill-opacity="1"><g transform="translate(193.518725, 220.999908)"><g><path d="M 5.4375 0 L 3.96875 -2.0625 C 3.800781 -2.050781 3.628906 -2.046875 3.453125 -2.046875 L 1.734375 -2.046875 L 1.734375 0 L 1.046875 0 L 1.046875 -6.4375 L 3.453125 -6.4375 C 4.273438 -6.4375 4.914062 -6.238281 5.375 -5.84375 C 5.84375 -5.445312 6.078125 -4.90625 6.078125 -4.21875 C 6.078125 -3.71875 5.945312 -3.296875 5.6875 -2.953125 C 5.4375 -2.609375 5.078125 -2.359375 4.609375 -2.203125 L 6.1875 0 Z M 3.4375 -2.625 C 4.070312 -2.625 4.554688 -2.765625 4.890625 -3.046875 C 5.234375 -3.328125 5.40625 -3.71875 5.40625 -4.21875 C 5.40625 -4.738281 5.234375 -5.140625 4.890625 -5.421875 C 4.554688 -5.703125 4.070312 -5.84375 3.4375 -5.84375 L 1.734375 -5.84375 L 1.734375 -2.625 Z M 3.4375 -2.625 "/></g></g></g><g fill="#000000" fill-opacity="1"><g transform="translate(207.270265, 220.999908)"><g><path d="M 2.296875 -5.84375 L 0.03125 -5.84375 L 0.03125 -6.4375 L 5.234375 -6.4375 L 5.234375 -5.84375 L 2.984375 -5.84375 L 2.984375 0 L 2.296875 0 Z M 2.296875 -5.84375 "/></g></g></g><g fill="#000000" fill-opacity="1"><g transform="translate(219.652875, 220.999908)"><g><path d="M 5.078125 -1.71875 L 1.5 -1.71875 L 0.71875 0 L 0.015625 0 L 2.953125 -6.4375 L 3.625 -6.4375 L 6.5625 0 L 5.859375 0 Z M 4.828125 -2.265625 L 3.296875 -5.71875 L 1.75 -2.265625 Z M 4.828125 -2.265625 "/></g></g></g><g fill="#000000" fill-opacity="1"><g transform="translate(233.3493, 220.999908)"><g><path d="M 1.046875 -6.4375 L 1.734375 -6.4375 L 1.734375 0 L 1.046875 0 Z M 1.046875 -6.4375 "/></g></g></g><g fill="#000000" fill-opacity="1"><g transform="translate(243.232921, 220.999908)"><g><path d="M 6.421875 -6.4375 L 6.421875 0 L 5.859375 0 L 1.734375 -5.21875 L 1.734375 0 L 1.046875 0 L 1.046875 -6.4375 L 1.609375 -6.4375 L 5.75 -1.21875 L 5.75 -6.4375 Z M 6.421875 -6.4375 "/></g></g></g><g fill="#000000" fill-opacity="1"><g transform="translate(257.811342, 220.999908)"><g><path d="M 7.734375 -6.4375 L 7.734375 0 L 7.078125 0 L 7.078125 -5.140625 L 4.546875 -0.8125 L 4.21875 -0.8125 L 1.703125 -5.125 L 1.703125 0 L 1.046875 0 L 1.046875 -6.4375 L 1.609375 -6.4375 L 4.40625 -1.65625 L 7.171875 -6.4375 Z M 7.734375 -6.4375 "/></g></g></g><g fill="#000000" fill-opacity="1"><g transform="translate(273.694379, 220.999908)"><g><path d="M 5.59375 -0.59375 L 5.59375 0 L 1.046875 0 L 1.046875 -6.4375 L 5.453125 -6.4375 L 5.453125 -5.84375 L 1.734375 -5.84375 L 1.734375 -3.5625 L 5.046875 -3.5625 L 5.046875 -2.984375 L 1.734375 -2.984375 L 1.734375 -0.59375 Z M 5.59375 -0.59375 "/></g></g></g><g fill="#000000" fill-opacity="1"><g transform="translate(286.949806, 220.999908)"><g><path d="M 6.421875 -6.4375 L 6.421875 0 L 5.859375 0 L 1.734375 -5.21875 L 1.734375 0 L 1.046875 0 L 1.046875 -6.4375 L 1.609375 -6.4375 L 5.75 -1.21875 L 5.75 -6.4375 Z M 6.421875 -6.4375 "/></g></g></g><g fill="#000000" fill-opacity="1"><g transform="translate(301.528228, 220.999908)"><g><path d="M 2.296875 -5.84375 L 0.03125 -5.84375 L 0.03125 -6.4375 L 5.234375 -6.4375 L 5.234375 -5.84375 L 2.984375 -5.84375 L 2.984375 0 L 2.296875 0 Z M 2.296875 -5.84375 "/></g></g></g><g clip-path="url(#7d7003644f)"><path fill="#ff3131" d="M 99.226562 219.71875 L 99.226562 196.511719 L 68.859375 223.738281 L 68.859375 209.542969 L 110.558594 172.15625 L 110.558594 219.71875 L 99.226562 219.71875 " fill-opacity="1" fill-rule="nonzero"/></g><g clip-path="url(#324fcdc52a)"><path fill="#3b3f3f" d="M 110.558594 165.449219 L 68.859375 203.402344 L 68.859375 189.203125 L 110.558594 151.253906 L 110.558594 165.449219 " fill-opacity="1" fill-rule="nonzero"/></g><g clip-path="url(#2c5c78b534)"><path fill="#ff3131" d="M 38.488281 219.71875 L 38.488281 176.171875 L 68.859375 203.402344 L 68.859375 189.203125 L 27.15625 151.816406 L 27.15625 219.71875 L 38.488281 219.71875 " fill-opacity="1" fill-rule="nonzero"/></g><g clip-path="url(#29c37bb77e)"><path fill="#3b3f3f" d="M 42.632812 200.226562 L 42.632812 186.03125 L 68.859375 209.542969 L 68.859375 223.738281 L 42.632812 200.226562 " fill-opacity="1" fill-rule="nonzero"/></g></svg>